<mxfile host="app.diagrams.net" modified="2023-11-07T04:52:43.060Z" agent="Mozilla/5.0 (Windows NT 10.0; Win64; x64) AppleWebKit/537.36 (KHTML, like Gecko) Chrome/119.0.0.0 Safari/537.36" etag="19cgwj59cEhnJnKguxgH" version="22.0.8" type="device">
  <diagram name="Page-1" id="m_PVUNnjnnFQxlGxqVkp">
    <mxGraphModel dx="1774" dy="1157" grid="1" gridSize="10" guides="1" tooltips="1" connect="1" arrows="1" fold="1" page="1" pageScale="1" pageWidth="1169" pageHeight="827" math="0" shadow="0">
      <root>
        <mxCell id="0" />
        <mxCell id="1" parent="0" />
        <mxCell id="23j9lr0RIFEYQSZompgW-10" value="Smart Tool - Voice Command Centre" style="strokeWidth=1;shadow=0;dashed=0;align=center;html=1;shape=mxgraph.mockup.containers.window;align=left;verticalAlign=top;spacingLeft=8;strokeColor2=#008cff;strokeColor3=#c4c4c4;fontColor=#666666;mainText=;fontSize=17;labelBackgroundColor=none;whiteSpace=wrap;" vertex="1" parent="1">
          <mxGeometry x="50" y="34" width="1070" height="746" as="geometry" />
        </mxCell>
        <mxCell id="zFDp9GB-JW8S8Rdeju2c-42" value="" style="shape=mxgraph.signs.healthcare.neurology;html=1;pointerEvents=1;fillColor=#E6E6E6;strokeColor=none;verticalLabelPosition=bottom;verticalAlign=top;align=center;sketch=0;fontColor=#ffffff;" parent="1" vertex="1">
          <mxGeometry x="730" y="230" width="260" height="320" as="geometry" />
        </mxCell>
        <mxCell id="zFDp9GB-JW8S8Rdeju2c-51" value="Listen" style="strokeColor=#dddddd;shadow=1;strokeWidth=1;rounded=1;absoluteArcSize=1;arcSize=2;labelPosition=center;verticalLabelPosition=middle;align=center;verticalAlign=bottom;spacingLeft=0;fontColor=#999999;fontSize=12;whiteSpace=wrap;spacingBottom=2;html=1;" parent="1" vertex="1">
          <mxGeometry x="320" y="320" width="70" height="85" as="geometry" />
        </mxCell>
        <mxCell id="zFDp9GB-JW8S8Rdeju2c-52" value="" style="sketch=0;dashed=0;connectable=0;html=1;fillColor=#757575;strokeColor=none;shape=mxgraph.gcp2.live;part=1;" parent="zFDp9GB-JW8S8Rdeju2c-51" vertex="1">
          <mxGeometry x="0.5" width="37" height="50" relative="1" as="geometry">
            <mxPoint x="-18.5" y="10" as="offset" />
          </mxGeometry>
        </mxCell>
        <mxCell id="zFDp9GB-JW8S8Rdeju2c-55" value="Voice Command Centre" style="text;html=1;strokeColor=none;fillColor=none;align=center;verticalAlign=middle;whiteSpace=wrap;rounded=0;fontSize=34;fontStyle=1;fontFamily=Tahoma;fontColor=#0084ff;" parent="1" vertex="1">
          <mxGeometry x="160" y="150" width="410" height="100" as="geometry" />
        </mxCell>
        <mxCell id="23j9lr0RIFEYQSZompgW-3" value="&lt;font style=&quot;font-size: 20px;&quot;&gt;Open HR Portal to update my contact details&lt;/font&gt;" style="strokeWidth=1;shadow=0;dashed=0;align=center;html=1;shape=mxgraph.mockup.containers.rrect;rSize=0;strokeColor=#666666;fontColor=#5e1717;fontSize=17;verticalAlign=top;whiteSpace=wrap;fillColor=#ffffff;spacingTop=32;" vertex="1" parent="1">
          <mxGeometry x="365" y="520" width="440" height="160" as="geometry" />
        </mxCell>
        <mxCell id="23j9lr0RIFEYQSZompgW-4" value="&lt;font style=&quot;font-size: 16px;&quot;&gt;Confirm&amp;nbsp;&lt;/font&gt;" style="strokeWidth=1;shadow=0;dashed=0;align=center;html=1;shape=mxgraph.mockup.containers.rrect;rSize=0;fontSize=17;fontColor=#666666;strokeColor=#666666;align=left;spacingLeft=8;fillColor=#ffffff;resizeWidth=1;whiteSpace=wrap;" vertex="1" parent="23j9lr0RIFEYQSZompgW-3">
          <mxGeometry width="440" height="30" relative="1" as="geometry" />
        </mxCell>
        <mxCell id="23j9lr0RIFEYQSZompgW-5" value="" style="shape=ellipse;strokeColor=#008cff;resizable=0;fillColor=none;html=1;" vertex="1" parent="23j9lr0RIFEYQSZompgW-4">
          <mxGeometry x="1" y="0.5" width="20" height="20" relative="1" as="geometry">
            <mxPoint x="-25" y="-10" as="offset" />
          </mxGeometry>
        </mxCell>
        <mxCell id="23j9lr0RIFEYQSZompgW-6" value="OK" style="strokeWidth=1;shadow=0;dashed=0;align=center;html=1;shape=mxgraph.mockup.containers.rrect;rSize=0;fontSize=16;strokeColor=#6c8ebf;resizable=0;whiteSpace=wrap;fillColor=#dae8fc;" vertex="1" parent="23j9lr0RIFEYQSZompgW-3">
          <mxGeometry x="0.5" y="1" width="120" height="25" relative="1" as="geometry">
            <mxPoint x="-60" y="-33" as="offset" />
          </mxGeometry>
        </mxCell>
        <mxCell id="23j9lr0RIFEYQSZompgW-8" value="" style="dashed=0;shape=line;strokeWidth=1;noLabel=1;strokeColor=#eeeeee;opacity=50;" vertex="1" parent="1">
          <mxGeometry x="160" y="125" width="346" height="10" as="geometry" />
        </mxCell>
        <mxCell id="23j9lr0RIFEYQSZompgW-9" value="&lt;h1&gt;&lt;span style=&quot;background-color: initial;&quot;&gt;Voice Commands&lt;/span&gt;&lt;/h1&gt;&lt;h1&gt;&lt;span style=&quot;background-color: initial; font-size: 12px; font-weight: normal;&quot;&gt;User can speak and system can capture the input using NLP APIs&amp;nbsp;&lt;/span&gt;&lt;br&gt;&lt;/h1&gt;&lt;div&gt;&lt;span style=&quot;background-color: initial; font-size: 12px; font-weight: normal;&quot;&gt;System will prompt user to confirm before actioning.&amp;nbsp;&lt;/span&gt;&lt;/div&gt;" style="text;html=1;strokeColor=none;fillColor=#D5E8D4;spacing=5;spacingTop=-20;whiteSpace=wrap;overflow=hidden;rounded=0;opacity=40;" vertex="1" parent="1">
          <mxGeometry x="450" y="292.5" width="420" height="167.5" as="geometry" />
        </mxCell>
      </root>
    </mxGraphModel>
  </diagram>
</mxfile>
